<svg xmlns="http://www.w3.org/2000/svg" id="Layer_1" viewBox="-0.0008261387120001018 0 176.40164184570312 61.79999923706055" width="100%" height="100%"  xmlns:xlink="http://www.w3.org/1999/xlink"><rect id="svgEditorBackground" x="0" y="0" width="176.39999389648438" height="61.79999923706055" style="fill:none;stroke:none;"/><defs id="svgEditorDefs"><linearGradient gradientUnits="objectBoundingBox" id="lgrd2-black-white" spreadMethod="pad" x1="0%" x2="100%" y1="0%" y2="100%"><stop offset="0%" stop-color="black"/><stop offset="100%" stop-color="white"/></linearGradient></defs><style>.st7{fill:#5eb567;}</style><path class="st7" d="M22.5,0.6000000000000006l0.1999999999999993,4.2c1,-0.09999999999999964,1.6999999999999993,-0.09999999999999964,2.1999999999999993,-0.09999999999999964c4.800000000000001,0,9.100000000000001,1.5999999999999996,12.800000000000004,4.700000000000001s5.5,7.099999999999998,5.5,11.900000000000002c0,2.5,-0.29999999999999716,4.899999999999999,-0.7999999999999972,7.199999999999999s-1.2000000000000028,4.4999999999999964,-2.299999999999997,6.599999999999998c-1.1000000000000014,2.1000000000000014,-2.6000000000000014,3.799999999999997,-4.600000000000001,5s-4.300000000000001,1.8999999999999986,-7,1.8999999999999986c-0.6000000000000014,0,-1.3000000000000007,0,-2.3000000000000007,-0.10000000000000142c-1,-0.10000000000000142,-1.6000000000000014,-0.10000000000000142,-1.8999999999999986,-0.10000000000000142v2.799999999999997c-0.3999999999999986,1.2000000000000028,-1.1000000000000014,1.8999999999999986,-2.1000000000000014,1.8999999999999986c-0.6999999999999993,0,-1.3999999999999986,-0.29999999999999716,-2.1000000000000014,-0.8999999999999986c-0.6999999999999993,-0.6000000000000014,-1.1000000000000014,-1.2999999999999972,-1.1999999999999993,-2.1000000000000014l0.10000000000000142,-1.7000000000000028c-0.3000000000000007,0,-0.8999999999999986,0,-1.8999999999999986,0.10000000000000142c-1,0.10000000000000142,-1.8000000000000007,0.10000000000000142,-2.3000000000000007,0.10000000000000142c-2.5999999999999996,0,-4.9,-0.6000000000000014,-6.800000000000001,-1.7999999999999972c-2,-1.2000000000000028,-3.5,-2.799999999999997,-4.6,-4.700000000000003c-1.1,-2,-2,-4.199999999999999,-2.5,-6.600000000000001c-0.6000000000000018,-2.3000000000000007,-0.9000000000000011,-4.800000000000001,-0.9000000000000011,-7.5c0,-4.699999999999999,1.8,-8.6,5.299999999999999,-11.8c3.5000000000000027,-3.1999999999999993,7.6000000000000005,-4.8,12.200000000000003,-4.8c0.5,0,1.3000000000000007,0.10000000000000053,2.3000000000000007,0.20000000000000018c0,-0.20000000000000018,0.10000000000000142,-0.5,0.10000000000000142,-1.1v-3.899999999999991l2.6000000000000014,0.6000000000000006ZM19.1,38c0.10000000000000142,-2.6000000000000014,0.1999999999999993,-7.399999999999999,0.3000000000000007,-14.399999999999999c0.10000000000000142,-7,0.1999999999999993,-12.2,0.3000000000000007,-15.7h-0.5c-4.300000000000001,0,-7.9,1.5999999999999996,-10.8,4.699999999999999c-2.9000000000000004,3.0999999999999996,-4.3,6.899999999999999,-4.3,11.399999999999999c0,4.300000000000001,1.2000000000000002,7.699999999999999,3.7,10.299999999999997s5.9,3.8999999999999986,10.299999999999999,3.8999999999999986c0.3000000000000007,0,0.6999999999999993,-0.10000000000000142,1,-0.20000000000000284ZM23.900000000000002,7.8999999999999995h-1c0.3999999999999986,6.8999999999999995,0.6999999999999993,32.51979450596651,1.1000000000000014,30h0.6999999999999993c5.199999999999999,0,8.899999999999999,-1.2000000000000028,11.200000000000003,-3.5c2.200000000000003,-2.299999999999997,3.3999999999999986,-5.800000000000001,3.3999999999999986,-10.5c0,-4.600000000000001,-1.5,-8.4,-4.399999999999999,-11.5c-2.8999999999999986,-2.9000000000000004,-6.600000000000001,-4.499999999999999,-11,-4.499999999999999ZM40.5,49.8l-1,-2.6000000000000014c1.2999999999999972,-0.5,2.5,-1.2999999999999972,3.6000000000000014,-2.3999999999999986c1.1000000000000014,-1.1000000000000014,1.8999999999999986,-2.299999999999997,2.6000000000000014,-3.5c0.7000000000000028,-1.2000000000000028,1.2999999999999972,-2.700000000000003,1.7000000000000028,-4.600000000000001c0.5,-1.7999999999999972,0.7999999999999972,-3.3999999999999986,1,-4.800000000000001s0.3999999999999986,-3.1000000000000014,0.5,-5.099999999999998s0.20000000000000284,-3.6000000000000014,0.20000000000000284,-4.600000000000001v-4.100000000000001c0,-2.4000000000000004,0.20000000000000284,-3.9000000000000004,0.7000000000000028,-4.4c0.6000000000000014,-0.5999999999999996,3.6000000000000014,-0.9000000000000004,9.299999999999997,-0.9000000000000004c4.399999999999999,0,6.900000000000006,0,7.5,-0.09999999999999964c0.09999999999999432,16.199999999999996,0.29999999999999716,26.699999999999996,0.5999999999999943,31.5c-0.4000000000000057,1.2000000000000028,-1.0999999999999943,1.7999999999999972,-2.0999999999999943,1.7999999999999972c-0.7000000000000028,0,-1.2999999999999972,-0.29999999999999716,-2,-0.7999999999999972c-0.6000000000000014,-0.6000000000000014,-1,-1.2000000000000028,-1.2000000000000028,-2c0,-1.6000000000000014,-0.10000000000000142,-3.8999999999999986,-0.10000000000000142,-6.899999999999999v-13.799999999999997c0,-2.8999999999999986,0,-5,-0.10000000000000142,-6.5c-1.7000000000000028,0.3000000000000007,-3.299999999999997,0.3999999999999986,-5,0.5c-1.6000000000000014,0,-2.799999999999997,0.10000000000000142,-3.5,0.1999999999999993c-0.10000000000000142,1.3000000000000007,-0.20000000000000284,3.3000000000000007,-0.29999999999999716,5.900000000000002s-0.10000000000000142,4.899999999999999,-0.20000000000000284,6.899999999999999s-0.29999999999999716,4.200000000000003,-0.7000000000000028,6.700000000000003c-0.3999999999999986,2.5,-1.1000000000000014,4.600000000000001,-1.8999999999999986,6.299999999999997s-2.1000000000000014,3.299999999999997,-3.799999999999997,4.700000000000003c-1.3999999999999986,1.2999999999999972,-3.3999999999999986,2.200000000000003,-5.799999999999997,2.6000000000000014ZM72.1,31.699999999999996c0,-1.6000000000000014,0.20000000000000284,-3.3999999999999986,0.5,-5.300000000000001c0.29999999999999716,-2,0.7999999999999972,-4,1.5,-6.199999999999999c0.7000000000000028,-2.1000000000000014,1.7000000000000028,-3.8999999999999986,3,-5.4c1.4000000000000057,-1.4000000000000004,2.9000000000000057,-2.200000000000001,4.700000000000003,-2.200000000000001c3.799999999999997,0,6.900000000000006,1.6999999999999993,9.200000000000003,5.199999999999999c2.299999999999997,3.3999999999999986,3.5,7.300000000000001,3.5,11.5c0,1.8000000000000007,-0.20000000000000284,3.599999999999998,-0.5999999999999943,5.300000000000001c-0.4000000000000057,1.7999999999999972,-1,3.5,-1.7999999999999972,5.200000000000003c-0.7999999999999972,1.7000000000000028,-1.9000000000000057,3.1000000000000014,-3.4000000000000057,4.299999999999997s-3.200000000000003,1.7999999999999972,-5.200000000000003,1.8999999999999986c-3.700000000000003,-0.5,-6.5,-2,-8.5,-4.700000000000003c-1.9000000000000057,-2.5,-2.9000000000000057,-5.700000000000003,-2.9000000000000057,-9.600000000000001ZM82.19999999999999,15.799999999999995c-1.4000000000000057,0.1999999999999993,-2.5999999999999943,1.4000000000000004,-3.5,3.799999999999999c-1,2.3999999999999986,-1.5999999999999943,4.699999999999999,-1.9000000000000057,7c-0.29999999999999716,2.3000000000000007,-0.4000000000000057,4.199999999999999,-0.4000000000000057,5.899999999999999c0,2.200000000000003,0.7000000000000028,4.299999999999997,2.0999999999999943,6.200000000000003c1.4000000000000057,1.8999999999999986,2.9000000000000057,2.799999999999997,4.599999999999994,2.799999999999997c1.2000000000000028,0,2.299999999999997,-0.5,3.299999999999997,-1.3999999999999986c1,-1,1.7999999999999972,-2.1000000000000014,2.4000000000000057,-3.6000000000000014c0.5999999999999943,-1.3999999999999986,1,-2.799999999999997,1.2999999999999972,-4.299999999999997c0.29999999999999716,-1.3999999999999986,0.4000000000000057,-2.6999999999999993,0.4000000000000057,-3.8000000000000007c0,-3.3000000000000007,-0.7000000000000028,-6.099999999999998,-2.200000000000003,-8.5c-1.4000000000000057,-2.3999999999999986,-3.4000000000000057,-3.8000000000000007,-6.099999999999994,-4.1ZM100.1,12.999999999999996l3.299999999999997,0.5999999999999996c0,0.8000000000000007,0,1.5,0.09999999999999432,1.9000000000000004c2.200000000000003,-1.4000000000000004,4.400000000000006,-2.0999999999999996,6.599999999999994,-2.0999999999999996c3.5999999999999943,0,6.5,1.5999999999999996,8.5,4.700000000000001s3,6.599999999999998,3,10.599999999999998c0,2,-0.09999999999999432,3.8999999999999986,-0.4000000000000057,5.700000000000003c-0.29999999999999716,1.7999999999999972,-0.7999999999999972,3.700000000000003,-1.5999999999999943,5.600000000000001c-0.7999999999999972,1.8999999999999986,-1.9000000000000057,3.3999999999999986,-3.5,4.5s-3.5,1.7000000000000028,-5.700000000000003,1.7000000000000028c-2.0999999999999943,0,-4.099999999999994,-0.6000000000000014,-6.099999999999994,-1.7000000000000028c0.20000000000000284,7,0.29999999999999716,12.100000000000001,0.4000000000000057,15.5c-0.4000000000000057,1.2000000000000028,-1.0999999999999943,1.8999999999999986,-2.0999999999999943,1.8999999999999986c-0.7000000000000028,0,-1.4000000000000057,-0.29999999999999716,-2.0999999999999943,-0.8999999999999986c-0.7000000000000028,-0.6000000000000014,-1.0999999999999943,-1.2999999999999972,-1.2000000000000028,-2.1000000000000014l0.7999999999999972,-45.9ZM104,19.4l0.20000000000000284,19.199999999999996c0.5,1,1.2000000000000028,1.7000000000000028,2.200000000000003,2.299999999999997c1,0.6000000000000014,2.0999999999999943,0.8999999999999986,3.299999999999997,0.8999999999999986c1.5999999999999943,0,2.9000000000000057,-0.5,4,-1.5s1.9000000000000057,-2.299999999999997,2.299999999999997,-4c0.5,-1.6000000000000014,0.7999999999999972,-3.200000000000003,1,-4.600000000000001c0.20000000000000284,-1.3999999999999986,0.29999999999999716,-2.8999999999999986,0.29999999999999716,-4.5c0,-6.800000000000001,-2.299999999999997,-10.100000000000001,-6.900000000000006,-10.100000000000001c-1.5,0,-2.799999999999997,0.1999999999999993,-4.099999999999994,0.6000000000000014c-1.2999999999999972,0.3999999999999986,-2.0999999999999943,1,-2.299999999999997,1.6999999999999993ZM131.8,39.5c0,0.7000000000000028,0,1.6000000000000014,0.09999999999999432,2.700000000000003c-0.4000000000000057,1.2000000000000028,-1.0999999999999943,1.8999999999999986,-2.0999999999999943,1.8999999999999986c-0.6999999999999886,0,-1.4000000000000057,-0.29999999999999716,-2.0999999999999943,-0.8999999999999986c-0.7000000000000028,-0.6000000000000014,-1.0999999999999943,-1.2999999999999972,-1.2000000000000028,-2.1000000000000014c0.09999999999999432,-3.200000000000003,0.29999999999999716,-7.899999999999999,0.4000000000000057,-14.2c0.20000000000000284,-6.199999999999999,0.29999999999999716,-10.400000000000002,0.4000000000000057,-12.6l2.700000000000003,-0.5c0.5,2.5000000000000018,0.8000000000000114,5.9,0.9000000000000057,10.199999999999998c0.09999999999999432,4.199999999999999,0.30000000000001137,7.399999999999999,0.5,9.399999999999999c0.8000000000000114,-1.1000000000000014,2.9000000000000057,-4,6.5,-8.7c3.5,-4.699999999999999,6,-8.2,7.199999999999989,-10.5c0.9000000000000057,-0.1999999999999993,1.4000000000000057,-0.1999999999999993,1.6999999999999886,-0.1999999999999993c0.8000000000000114,0,1.3000000000000114,0.3000000000000007,1.5999999999999943,1c0.30000000000001137,0.6999999999999993,0.5,2,0.5999999999999943,3.8000000000000007l1.0999999999999943,24.600000000000005c-0.4000000000000057,1.2000000000000028,-1.0999999999999943,1.7999999999999972,-2.0999999999999943,1.7999999999999972c-0.6999999999999886,0,-1.4000000000000057,-0.29999999999999716,-2.0999999999999943,-0.8999999999999986c-0.6999999999999886,-0.6000000000000014,-1.0999999999999943,-1.2999999999999972,-1.1999999999999886,-2.1000000000000014c0,-1.2999999999999972,0.09999999999999432,-4.5,0.30000000000001137,-9.600000000000001c0.19999999999998863,-5.100000000000001,0.30000000000001137,-8.8,0.4000000000000057,-10.899999999999999c-6.699999999999989,7.699999999999999,-11.300000000000011,13.600000000000001,-13.599999999999994,17.799999999999997Z" style="fill:#006666;"/><path class="st7" d="M175.5,13.4l0.9000000000000057,32.1c-0.4000000000000057,1.2000000000000028,-1.0999999999999943,1.7999999999999972,-2,1.7999999999999972c-0.6999999999999886,0,-1.3000000000000114,-0.29999999999999716,-2,-0.7999999999999972c-0.6999999999999886,-0.6000000000000014,-1.0999999999999943,-1.2000000000000028,-1.1999999999999886,-2l0.5999999999999943,-13c-1.6999999999999886,1.1000000000000014,-3.4000000000000057,1.6000000000000014,-5.199999999999989,1.7000000000000028c-1.5,5,-3.4000000000000057,8.600000000000001,-5.699999999999989,10.899999999999999c-2.3000000000000114,2.299999999999997,-5.900000000000006,4.200000000000003,-11,5.600000000000001l-1,-2.6000000000000014c7.400000000000006,-1.8999999999999986,11.599999999999994,-6.799999999999997,12.699999999999989,-14.800000000000004c-1.9000000000000057,-0.8000000000000007,-3.5,-2,-4.699999999999989,-3.6000000000000014c-1.1999999999999886,-1.6000000000000014,-1.9000000000000057,-3.5,-1.9000000000000057,-5.600000000000001c0,-4.199999999999999,1.0999999999999943,-7,3.1999999999999886,-8.4c2.1999999999999886,-1.4000000000000004,5.599999999999994,-2.0999999999999996,10.199999999999989,-2.0999999999999996c2.5,-0.09999999999999964,4.800000000000011,0.1999999999999993,7.099999999999994,0.8000000000000007ZM172.2,26.5l-0.30000000000001137,-9.399999999999999c-1.4000000000000057,-0.3999999999999986,-3.4000000000000057,-0.6999999999999993,-6.199999999999989,-0.6999999999999993c-1.9000000000000057,0,-3.5,0.3999999999999986,-4.900000000000006,1.3000000000000007c-1.4000000000000057,0.8999999999999986,-2,2.1999999999999993,-2,4.199999999999999c0,2.1000000000000014,0.9000000000000057,4,2.5999999999999943,5.5c1.6999999999999886,1.5,3.5999999999999943,2.3000000000000007,5.599999999999994,2.3000000000000007c2.4000000000000057,-0.10000000000000142,4.099999999999994,-1.1000000000000014,5.199999999999989,-3.1999999999999993Z" style="fill:#006666;"/></svg>